<svg version="1.1" xmlns="http://www.w3.org/2000/svg" viewBox="0 0 2366.967379369491 835.625" width="4733.934758738982" height="1671.25">
  <!-- svg-source:excalidraw -->
  
  <defs>
    <style>
      @font-face {
        font-family: "Virgil";
        src: url("https://excalidraw.com/Virgil.woff2");
      }
      @font-face {
        font-family: "Cascadia";
        src: url("https://excalidraw.com/Cascadia.woff2");
      }
    </style>
  </defs>
  <rect x="0" y="0" width="2366.967379369491" height="835.625" fill="#ffffff"></rect><g stroke-linecap="round" transform="translate(833.3447242468349 15) rotate(0 220.5 150.5)"><path d="M0.44 -0.83 C103.01 -2.74, 205.24 -2.33, 441.7 -0.52 M0.23 0.05 C174.13 0.52, 347.77 1.04, 441.32 -0.23 M442.02 -1.1 C440.07 111.5, 440.3 221.63, 441 301.19 M441.03 0.02 C442.86 69.3, 443.35 137.96, 440.47 301.03 M441.8 300.05 C279.87 300.28, 119.82 300.47, -0.03 300.48 M440.7 301.32 C340.86 301.47, 241.13 301.53, 0.04 301.2 M-1.04 301.67 C1.69 221.82, 0.97 144.26, 0.72 0.6 M-0.31 300.95 C-0.23 202.6, -0.97 102.96, -0.3 0.44" stroke="#000000" stroke-width="1" fill="none"></path></g><g transform="translate(857.3447242468349 31) rotate(0 164.5 23)"><text x="0" y="18" font-family="Helvetica, Segoe UI Emoji" font-size="20px" fill="#000000" text-anchor="start" style="white-space: pre;" direction="ltr">Linkage Equipment Schedule Screen</text><text x="0" y="41" font-family="Helvetica, Segoe UI Emoji" font-size="20px" fill="#000000" text-anchor="start" style="white-space: pre;" direction="ltr">[IP or SI units per user selection]</text></g><g stroke-linecap="round" transform="translate(861.3447242468349 99) rotate(0 190 96.125)"><path d="M0.26 -0.55 C88.03 3.18, 175.53 1.41, 379.52 -0.64 M0.21 0.15 C88.8 0.97, 178.31 0.9, 380.28 -0.56 M380.34 0.88 C378.94 47.96, 377.76 91.68, 381.57 192.09 M379.02 -0.27 C378.7 44.18, 379.1 87.97, 379.15 191.29 M380.49 192.58 C233.3 193.8, 87.55 191.58, 1.15 192.33 M379.41 191.68 C246.33 191.48, 112.23 190.96, -0.46 192.43 M-0.86 194.15 C-3.05 126.59, -1.2 59.61, -0.82 -0.25 M-0.3 192.47 C-1.39 121.08, -1.56 50.78, 0.11 0.19" stroke="#000000" stroke-width="1" fill="none"></path></g><g transform="translate(869.6304385325491 101) rotate(0 82 22.5)"><text x="0" y="17.5" font-family="Helvetica, Segoe UI Emoji" font-size="20px" fill="#000000" text-anchor="start" style="white-space: pre;" direction="ltr">Multiple-Zone VAV</text><text x="0" y="40" font-family="Helvetica, Segoe UI Emoji" font-size="20px" fill="#000000" text-anchor="start" style="white-space: pre;" direction="ltr"></text></g><g stroke-linecap="round"><g transform="translate(1276.6180549644805 173.47015424889577) rotate(0 91.22978838278232 -0.760138110273175)"><path d="M1.14 0.45 C31.03 0.3, 149.93 -1.44, 180.03 -1.97 M0.27 -0.35 C30.47 -0.23, 152 -0.29, 182.19 -0.57" stroke="#000000" stroke-width="1" fill="none"></path></g><g transform="translate(1276.6180549644805 173.47015424889577) rotate(0 91.22978838278232 -0.760138110273175)"><path d="M29.95 -11.94 C18.73 -4.99, 7.43 -3.36, -0.01 0.59 M28.95 -9.45 C22.26 -7.72, 17.54 -5.53, 0.81 -0.2" stroke="#000000" stroke-width="1" fill="none"></path></g><g transform="translate(1276.6180549644805 173.47015424889577) rotate(0 91.22978838278232 -0.760138110273175)"><path d="M30.21 8.58 C19.08 8.26, 7.69 2.6, -0.01 0.59 M29.22 11.07 C22.31 8.21, 17.53 5.82, 0.81 -0.2" stroke="#000000" stroke-width="1" fill="none"></path></g><g transform="translate(1276.6180549644805 173.47015424889577) rotate(0 91.22978838278232 -0.760138110273175)"><path d="M154.79 8.03 C163.7 7.01, 172.35 1.19, 181.04 -0.43 M153.8 10.52 C159.5 7.74, 167.33 5.24, 181.86 -1.22" stroke="#000000" stroke-width="1" fill="none"></path></g><g transform="translate(1276.6180549644805 173.47015424889577) rotate(0 91.22978838278232 -0.760138110273175)"><path d="M154.71 -12.49 C163.47 -6.23, 172.14 -4.77, 181.04 -0.43 M153.71 -10 C159.59 -8.2, 167.44 -6.12, 181.86 -1.22" stroke="#000000" stroke-width="1" fill="none"></path></g></g><g stroke-linecap="round" transform="translate(1457.3447242468349 10) rotate(0 144 154)"><path d="M0.44 0.81 C60.62 0.59, 123.74 2.34, 288.05 -0.56 M0.15 -0.15 C111.39 -0.7, 222.1 -1.3, 287.27 0.42 M288.14 -1.34 C289.52 90.99, 289.52 183.3, 286.63 309.23 M288.62 0.63 C286.9 95.85, 287.3 190.1, 288.53 308.58 M286.9 308.94 C206.93 308.86, 124.38 307.58, 1.34 307.85 M288.04 308.39 C193.78 309.2, 100.31 309.47, 0.17 308.09 M-0.83 308.61 C2.95 223.59, 2.55 139.17, -1.23 1.36 M0.43 308 C0.03 229.73, -0.17 150.06, -0.57 0.12" stroke="#000000" stroke-width="1" fill="none"></path></g><g transform="translate(1472.3447242468349 24) rotate(0 81.5 23)"><text x="0" y="18" font-family="Helvetica, Segoe UI Emoji" font-size="20px" fill="#000000" text-anchor="start" style="white-space: pre;" direction="ltr">systems.json</text><text x="0" y="41" font-family="Helvetica, Segoe UI Emoji" font-size="20px" fill="#000000" text-anchor="start" style="white-space: pre;" direction="ltr">[Modelica SI units]</text></g><g transform="translate(1465.5433797090193 96) rotate(0 135.47058823529414 98)"><text x="0" y="9.529411764705882" font-family="Cascadia, Segoe UI Emoji" font-size="9.262283737024237px" fill="#000000" text-anchor="start" style="white-space: pre;" direction="ltr">{</text><text x="0" y="21.058823529411764" font-family="Cascadia, Segoe UI Emoji" font-size="9.262283737024237px" fill="#000000" text-anchor="start" style="white-space: pre;" direction="ltr">    "Box_1": {</text><text x="0" y="32.588235294117645" font-family="Cascadia, Segoe UI Emoji" font-size="9.262283737024237px" fill="#000000" text-anchor="start" style="white-space: pre;" direction="ltr">        "Discharge air mass flow rate": 1,</text><text x="0" y="44.11764705882353" font-family="Cascadia, Segoe UI Emoji" font-size="9.262283737024237px" fill="#000000" text-anchor="start" style="white-space: pre;" direction="ltr">        "VAV damper pressure drop": 10,</text><text x="0" y="55.64705882352941" font-family="Cascadia, Segoe UI Emoji" font-size="9.262283737024237px" fill="#000000" text-anchor="start" style="white-space: pre;" direction="ltr">        "Reheat coil": {</text><text x="0" y="67.17647058823529" font-family="Cascadia, Segoe UI Emoji" font-size="9.262283737024237px" fill="#000000" text-anchor="start" style="white-space: pre;" direction="ltr">            "Capacity": 10000,</text><text x="0" y="78.70588235294117" font-family="Cascadia, Segoe UI Emoji" font-size="9.262283737024237px" fill="#000000" text-anchor="start" style="white-space: pre;" direction="ltr">            "Liquid mass flow rate": 1,</text><text x="0" y="90.23529411764706" font-family="Cascadia, Segoe UI Emoji" font-size="9.262283737024237px" fill="#000000" text-anchor="start" style="white-space: pre;" direction="ltr">            "Entering liquid temperature": 323.15,</text><text x="0" y="101.76470588235294" font-family="Cascadia, Segoe UI Emoji" font-size="9.262283737024237px" fill="#000000" text-anchor="start" style="white-space: pre;" direction="ltr">            "Liquid pressure drop": 5000,</text><text x="0" y="113.29411764705883" font-family="Cascadia, Segoe UI Emoji" font-size="9.262283737024237px" fill="#000000" text-anchor="start" style="white-space: pre;" direction="ltr">            "Air mass flow rate": 1,</text><text x="0" y="124.82352941176471" font-family="Cascadia, Segoe UI Emoji" font-size="9.262283737024237px" fill="#000000" text-anchor="start" style="white-space: pre;" direction="ltr">            "Entering air temperature": 273.15,</text><text x="0" y="136.35294117647058" font-family="Cascadia, Segoe UI Emoji" font-size="9.262283737024237px" fill="#000000" text-anchor="start" style="white-space: pre;" direction="ltr">            "Air pressure drop": 150,</text><text x="0" y="147.88235294117646" font-family="Cascadia, Segoe UI Emoji" font-size="9.262283737024237px" fill="#000000" text-anchor="start" style="white-space: pre;" direction="ltr">            "UA (dry coil conditions)": 500</text><text x="0" y="159.41176470588235" font-family="Cascadia, Segoe UI Emoji" font-size="9.262283737024237px" fill="#000000" text-anchor="start" style="white-space: pre;" direction="ltr">        },</text><text x="0" y="170.94117647058823" font-family="Cascadia, Segoe UI Emoji" font-size="9.262283737024237px" fill="#000000" text-anchor="start" style="white-space: pre;" direction="ltr">        "Reheat coil valve": {</text><text x="0" y="182.47058823529412" font-family="Cascadia, Segoe UI Emoji" font-size="9.262283737024237px" fill="#000000" text-anchor="start" style="white-space: pre;" direction="ltr">            "Pressure drop": 5000</text><text x="0" y="194" font-family="Cascadia, Segoe UI Emoji" font-size="9.262283737024237px" fill="#000000" text-anchor="start" style="white-space: pre;" direction="ltr">        },</text></g><g stroke-linecap="round" transform="translate(259.84472424683486 11.5) rotate(0 220.5 150.5)"><path d="M0.99 0.04 C112.54 -1.83, 225.16 -1.08, 441.93 0.04 M-0.29 -0.46 C153.78 1.04, 307.94 1.68, 441.14 -0.36 M439.65 0.92 C442.16 62.17, 441.17 126.91, 442.12 301.77 M441.11 0.22 C440.27 105.3, 440.1 210.55, 441.65 301.62 M440.29 300.93 C272.26 302.96, 104.02 302.56, 0.01 301.09 M440.58 300.57 C333.99 301.14, 227.25 301.39, -0.46 301.13 M-0.23 302.27 C-2.06 216.03, -2.48 131.61, 1.1 0.88 M0.55 300.56 C-0.9 219.19, -0.7 137.1, -0.3 -0.19" stroke="#000000" stroke-width="1" fill="none"></path></g><g transform="translate(283.84472424683486 27.5) rotate(0 132 22.5)"><text x="0" y="17.5" font-family="Helvetica, Segoe UI Emoji" font-size="20px" fill="#000000" text-anchor="start" style="white-space: pre;" direction="ltr">Linkage Configuration Screen</text><text x="0" y="40" font-family="Helvetica, Segoe UI Emoji" font-size="20px" fill="#000000" text-anchor="start" style="white-space: pre;" direction="ltr"></text></g><g stroke-linecap="round" transform="translate(288.84472424683486 91.5) rotate(0 190 102.5)"><path d="M-0.56 0.28 C148.58 1.08, 300.32 -0.04, 380.58 0.72 M0.01 -0.58 C88.1 2.3, 175.4 1.68, 379.46 -0.06 M381.67 -1.47 C378.77 48.61, 379.68 97.78, 380.89 204.44 M379.95 0.02 C380.03 63.91, 381.07 128.62, 380.73 205.62 M379.32 204.89 C229.83 204.26, 81.21 204.96, -0.7 206.07 M379.61 205.02 C263.5 203.37, 147.36 203.21, -0.12 205.57 M0.03 204.46 C-0.19 139.51, 1.63 75.92, -0.51 0.55 M-0.26 204.82 C-1.41 133.32, -1.74 62.81, 0.87 -0.51" stroke="#000000" stroke-width="1" fill="none"></path></g><g transform="translate(296.84472424683486 97.5) rotate(0 82 34)"><text x="0" y="17.666666666666668" font-family="Helvetica, Segoe UI Emoji" font-size="20px" fill="#000000" text-anchor="start" style="white-space: pre;" direction="ltr">Multiple-Zone VAV</text><text x="0" y="40.333333333333336" font-family="Helvetica, Segoe UI Emoji" font-size="20px" fill="#000000" text-anchor="start" style="white-space: pre;" direction="ltr"></text><text x="0" y="63" font-family="Helvetica, Segoe UI Emoji" font-size="20px" fill="#000000" text-anchor="start" style="white-space: pre;" direction="ltr"></text></g><g transform="translate(313.34472424683486 138) rotate(0 138 11.5)"><text x="0" y="18" font-family="Helvetica, Segoe UI Emoji" font-size="20px" fill="#000000" text-anchor="start" style="white-space: pre;" direction="ltr">Outdoor/relief/return air section</text></g><g transform="translate(316.34472424683486 181.5) rotate(0 79 11.5)"><text x="0" y="18" font-family="Helvetica, Segoe UI Emoji" font-size="20px" fill="#000000" text-anchor="start" style="white-space: pre;" direction="ltr">Supply air section</text></g><g transform="translate(341.34472424683486 225.5) rotate(0 47.5 11.5)"><text x="0" y="18" font-family="Helvetica, Segoe UI Emoji" font-size="20px" fill="#000000" text-anchor="start" style="white-space: pre;" direction="ltr">Supply fan</text></g><g transform="translate(340.84472424683486 267.5) rotate(0 52.5 11.5)"><text x="0" y="18" font-family="Helvetica, Segoe UI Emoji" font-size="20px" fill="#000000" text-anchor="start" style="white-space: pre;" direction="ltr">Heating coil</text></g><g stroke-linecap="round"><g transform="translate(350.1245618961995 343.45241734299225) rotate(0 45.41960121862553 54.58136524213887)"><path d="M0.65 -1.09 C15.99 17.12, 76.52 90.74, 91.31 109.32 M-0.47 0.95 C14.86 19.25, 75.51 91.8, 90.88 110.25" stroke="#000000" stroke-width="1" fill="none"></path></g><g transform="translate(350.1245618961995 343.45241734299225) rotate(0 45.41960121862553 54.58136524213887)"><path d="M63.12 96.84 C69.27 97.07, 77.28 102.52, 88.98 111.7 M65.87 95.97 C73.93 99.02, 81.35 105.9, 91.47 110.98" stroke="#000000" stroke-width="1" fill="none"></path></g><g transform="translate(350.1245618961995 343.45241734299225) rotate(0 45.41960121862553 54.58136524213887)"><path d="M78.88 83.69 C81.25 87.16, 85.48 95.77, 88.98 111.7 M81.62 82.82 C84.39 90.26, 86.65 101.45, 91.47 110.98" stroke="#000000" stroke-width="1" fill="none"></path></g></g><g stroke-linecap="round" transform="translate(258.59472424683486 557.625) rotate(0 263.5 134)"><path d="M0.17 -0.51 C205.37 -1.76, 409.85 -2.03, 526.5 -0.23 M0.07 0.03 C181.33 0.84, 361.82 0.37, 527.24 0.11 M525.57 -0.08 C527.88 104.26, 528.75 211.82, 527.1 269.51 M526.83 -0.66 C527.81 54.11, 527.71 107.88, 527.3 268.52 M526.81 267.53 C409.4 268.5, 291.04 267.64, -0.72 267.55 M526.77 268.39 C411.34 267.9, 296.26 268.17, 0.02 268.19 M-0.16 266.93 C-1.79 176.34, -0.76 84.66, -1.29 -0.6 M0.62 268.77 C1.83 188.41, 2.25 107.94, 0.14 0.53" stroke="#000000" stroke-width="1" fill="none"></path></g><g transform="translate(275.09472424683486 571.625) rotate(0 111 11.5)"><text x="0" y="18" font-family="Helvetica, Segoe UI Emoji" font-size="20px" fill="#000000" text-anchor="start" style="white-space: pre;" direction="ltr">Configuration1Class.json</text></g><g transform="translate(274.59472424683486 628.9625370919882) rotate(0 247.21306818181796 96.83123145400589)"><text x="0" y="6.802839223091439" font-family="Cascadia, Segoe UI Emoji" font-size="7.335699352576201px" fill="#000000" text-anchor="start" style="white-space: pre;" direction="ltr">[</text><text x="0" y="15.605678446182878" font-family="Cascadia, Segoe UI Emoji" font-size="7.335699352576201px" fill="#000000" text-anchor="start" style="white-space: pre;" direction="ltr">  {</text><text x="0" y="24.408517669274318" font-family="Cascadia, Segoe UI Emoji" font-size="7.335699352576201px" fill="#000000" text-anchor="start" style="white-space: pre;" direction="ltr">    "modelicaFile": "Buildings/Templates/TerminalUnits/Validation/UserProject/TerminalUnits/VAVReheatCoilWater.mo",</text><text x="0" y="33.21135689236576" font-family="Cascadia, Segoe UI Emoji" font-size="7.335699352576201px" fill="#000000" text-anchor="start" style="white-space: pre;" direction="ltr">    "within": "Buildings.Templates.TerminalUnits.Validation.UserProject.TerminalUnits",</text><text x="0" y="42.014196115457196" font-family="Cascadia, Segoe UI Emoji" font-size="7.335699352576201px" fill="#000000" text-anchor="start" style="white-space: pre;" direction="ltr">    "prefix": "model",</text><text x="0" y="50.817035338548635" font-family="Cascadia, Segoe UI Emoji" font-size="7.335699352576201px" fill="#000000" text-anchor="start" style="white-space: pre;" direction="ltr">    "topClassName": "Buildings.Templates.TerminalUnits.Validation.UserProject.TerminalUnits.VAVReheatCoilWater",</text><text x="0" y="59.619874561640074" font-family="Cascadia, Segoe UI Emoji" font-size="7.335699352576201px" fill="#000000" text-anchor="start" style="white-space: pre;" direction="ltr">    "defaultName": "\"ter\"",</text><text x="0" y="68.42271378473151" font-family="Cascadia, Segoe UI Emoji" font-size="7.335699352576201px" fill="#000000" text-anchor="start" style="white-space: pre;" direction="ltr">    "extends": [</text><text x="0" y="77.22555300782295" font-family="Cascadia, Segoe UI Emoji" font-size="7.335699352576201px" fill="#000000" text-anchor="start" style="white-space: pre;" direction="ltr">      {</text><text x="0" y="86.02839223091439" font-family="Cascadia, Segoe UI Emoji" font-size="7.335699352576201px" fill="#000000" text-anchor="start" style="white-space: pre;" direction="ltr">        "className": "Buildings.Templates.TerminalUnits.VAVBox",</text><text x="0" y="94.83123145400583" font-family="Cascadia, Segoe UI Emoji" font-size="7.335699352576201px" fill="#000000" text-anchor="start" style="white-space: pre;" direction="ltr">        "modifications": [</text><text x="0" y="103.63407067709727" font-family="Cascadia, Segoe UI Emoji" font-size="7.335699352576201px" fill="#000000" text-anchor="start" style="white-space: pre;" direction="ltr">          {</text><text x="0" y="112.43690990018871" font-family="Cascadia, Segoe UI Emoji" font-size="7.335699352576201px" fill="#000000" text-anchor="start" style="white-space: pre;" direction="ltr">            "prefix": "redeclare",</text><text x="0" y="121.23974912328015" font-family="Cascadia, Segoe UI Emoji" font-size="7.335699352576201px" fill="#000000" text-anchor="start" style="white-space: pre;" direction="ltr">            "className": "Templates.BaseClasses.Coils.WaterBasedHeating",</text><text x="0" y="130.0425883463716" font-family="Cascadia, Segoe UI Emoji" font-size="7.335699352576201px" fill="#000000" text-anchor="start" style="white-space: pre;" direction="ltr">            "name": "coiReh",</text><text x="0" y="138.84542756946303" font-family="Cascadia, Segoe UI Emoji" font-size="7.335699352576201px" fill="#000000" text-anchor="start" style="white-space: pre;" direction="ltr">            "modifications": [</text><text x="0" y="147.64826679255447" font-family="Cascadia, Segoe UI Emoji" font-size="7.335699352576201px" fill="#000000" text-anchor="start" style="white-space: pre;" direction="ltr">              {</text><text x="0" y="156.4511060156459" font-family="Cascadia, Segoe UI Emoji" font-size="7.335699352576201px" fill="#000000" text-anchor="start" style="white-space: pre;" direction="ltr">                "className": "Buildings.Templates.BaseClasses.Coils.Actuators.TwoWayValve",</text><text x="0" y="165.25394523873734" font-family="Cascadia, Segoe UI Emoji" font-size="7.335699352576201px" fill="#000000" text-anchor="start" style="white-space: pre;" direction="ltr">                "name": "act",</text><text x="0" y="174.05678446182878" font-family="Cascadia, Segoe UI Emoji" font-size="7.335699352576201px" fill="#000000" text-anchor="start" style="white-space: pre;" direction="ltr">                "isFinal": false,</text><text x="0" y="182.85962368492022" font-family="Cascadia, Segoe UI Emoji" font-size="7.335699352576201px" fill="#000000" text-anchor="start" style="white-space: pre;" direction="ltr">                "redeclare": true</text><text x="0" y="191.66246290801166" font-family="Cascadia, Segoe UI Emoji" font-size="7.335699352576201px" fill="#000000" text-anchor="start" style="white-space: pre;" direction="ltr"></text></g><g stroke-linecap="round"><g transform="translate(810.1032758324459 566.6349423702649) rotate(359.8041546431401 -0.6371285164144638 128.33558319355745)"><path d="M-0.11 1.19 C0.05 43.75, 0.34 212.14, 0.36 254.39 M-1.63 0.78 C-1.6 43.61, -0.85 213.34, -0.75 255.9" stroke="#000000" stroke-width="1" fill="none"></path></g></g><g stroke-linecap="round" transform="translate(467.2266950619339 424.26158837080243) rotate(0 35.339290345615666 53.625409397054625)"><path d="M-1.81 -1.07 L70.06 1.13 L71.38 107.29 L-0.58 106.02" stroke="none" stroke-width="0" fill="#fff"></path><path d="M-1.18 -1.87 C28.51 -1.87, 53.27 -2.21, 71.54 0.36 M-0.52 -0.85 C21.89 0.09, 43.33 -0.41, 70.75 -0.65 M70.38 -0.68 C70.14 32.94, 69.78 68.29, 70.09 108.56 M71.09 0.88 C72.42 35.31, 71.79 69.96, 71.01 107.93 M70.65 106.68 C44.49 109.53, 16.1 106.44, -1.61 107.28 M70.68 107 C49.86 106.78, 28.44 106.97, -0.69 107.82 M0.45 107.98 C0.69 77.84, 0.64 53.16, -0.19 -1.77 M-0.22 107.43 C-0.56 78.7, -0.25 51.93, 0.8 0.59" stroke="#000000" stroke-width="2" fill="none"></path></g><g stroke-linecap="round" transform="translate(459.6792620262197 417.2414990850882) rotate(0 35.339290345615666 53.625409397054625)"><path d="M-1.07 -0.62 L71.81 0.7 L70.72 106.67 L-1.23 106.13" stroke="none" stroke-width="0" fill="#fff"></path><path d="M-1.87 1.36 C17.49 -0.61, 36.27 1.28, 71.04 0.25 M-0.85 -0.19 C19.27 -0.46, 38.3 0.44, 70.02 0.25 M70 -1.44 C69.66 39.34, 70.11 81.69, 71.99 107.8 M71.55 0.92 C70.97 40.67, 70.51 81.07, 71.36 108.03 M70.11 107.74 C51.14 106.02, 26.6 105.63, 0.03 107.25 M70.43 107.61 C52.64 107.39, 34.57 106.57, 0.57 106.82 M0.73 108.56 C-2.3 70.21, 0.58 30.46, -1.77 -0.85 M0.18 107.69 C-0.31 65.89, 0.53 23.85, 0.59 -0.9" stroke="#000000" stroke-width="2" fill="none"></path></g><g stroke-linecap="round" transform="translate(450.28417274050435 408.98759283508844) rotate(0 35.339290345615666 53.625409397054625)"><path d="M-0.62 1.13 L71.38 0.04 L70.1 106.02 L-1.12 107.21" stroke="none" stroke-width="0" fill="#fff"></path><path d="M1.36 -1.63 C22.58 -1.31, 48.08 1.02, 70.93 -0.47 M-0.19 -0.27 C16.8 -0.17, 35.32 -0.06, 70.93 0.84 M69.24 -1.96 C68.72 40.13, 69.94 84.6, 71.23 108.78 M71.6 0.2 C71.41 32.8, 71.44 66.79, 71.45 107.29 M71.17 109.16 C44.58 105.88, 19.32 107.08, 0 106.42 M71.04 107.47 C56.49 107.48, 41.34 107.65, -0.43 107.82 M1.31 105.4 C1.02 71.63, -0.43 32.19, -0.85 1.85 M0.44 106.3 C0.98 81.37, 1.03 56.31, -0.9 -0.53" stroke="#000000" stroke-width="2" fill="none"></path></g><g stroke-linecap="round"><g transform="translate(462.2705993274153 457.7348298824411) rotate(0 23.443421491700576 -0.8611182574068152)"><path d="M0.82 -0.98 C7.57 -0.96, 32.09 -0.71, 39.81 -1.02 C47.52 -1.34, 45.94 -2.49, 47.1 -2.88 M-0.21 1.13 C7 1.34, 34.39 0.32, 42.19 -0.11 C50 -0.53, 45.8 -1.06, 46.6 -1.45" stroke="#000000" stroke-width="1" fill="none"></path></g></g><g stroke-linecap="round"><g transform="translate(464.1258515654297 426.2695425836025) rotate(0 22.40317636874306 -1.2315375582675188)"><path d="M-0.98 -0.62 C1.82 -1.14, 7.86 -2.36, 15.65 -2.28 C23.44 -2.21, 40.84 -0.4, 45.78 -0.18 M0.71 1.67 C3.95 0.72, 10.34 -4.06, 17.74 -4.14 C25.15 -4.21, 40.52 0.55, 45.13 1.22" stroke="#000000" stroke-width="1" fill="none"></path></g></g><g stroke-linecap="round"><g transform="translate(464.0492520490602 493.66391685395956) rotate(0 23.555880351901465 0.3048147143791766)"><path d="M-0.62 -1.18 C3.73 -1.02, 20.53 -0.58, 26.93 -0.04 C33.33 0.5, 34.3 2.46, 37.77 2.03 C41.24 1.61, 46.14 -1.89, 47.73 -2.59 M1.26 0.81 C5.43 0.67, 20.28 -2.45, 26.25 -2.05 C32.23 -1.65, 33.51 3.16, 37.08 3.2 C40.65 3.24, 45.68 -0.96, 47.66 -1.82" stroke="#000000" stroke-width="1" fill="none"></path></g></g><g stroke-linecap="round"><g transform="translate(460.8652048675299 504.90706526223835) rotate(0 26.497736471157566 -1.0094752271707534)"><path d="M-1.18 0.52 C0.71 0.45, 7.54 -0.69, 10.38 -1.02 C13.22 -1.35, 9.97 -1.55, 15.85 -1.45 C21.72 -1.35, 39.25 -0.21, 45.64 -0.4 C52.02 -0.6, 52.88 -2.15, 54.18 -2.62 M0.4 -0.25 C2.24 -0.05, 7.12 0.63, 9.55 0.6 C11.97 0.56, 8.93 -0.38, 14.93 -0.45 C20.93 -0.52, 39.28 0.49, 45.55 0.17 C51.83 -0.16, 51.13 -2.18, 52.58 -2.39" stroke="#000000" stroke-width="1" fill="none"></path></g></g><g stroke-linecap="round"><g transform="translate(461.1500477630957 441.33014413686374) rotate(0 22.826640841128835 0.6813029034868237)"><path d="M0.52 0.21 C3.68 0.27, 10.71 -1.05, 18.34 -0.87 C25.98 -0.7, 41.73 0.84, 46.32 1.26 M-0.67 -0.72 C2.4 -0.38, 9.82 0.02, 17.47 0.51 C25.12 1.01, 40.54 1.89, 45.24 2.25" stroke="#000000" stroke-width="1" fill="none"></path></g></g><g stroke-linecap="round"><g transform="translate(461.25753595924607 475.8134731727032) rotate(0 22.846110312516373 0.44736512745623713)"><path d="M0.21 0.15 C1.71 0.2, 4.92 1.11, 7.81 0.82 C10.7 0.53, 11.09 -1.73, 17.57 -1.61 C24.05 -1.48, 41.97 1.14, 46.7 1.57 M-1.13 -0.82 C0.29 -0.66, 3.78 2.04, 6.71 2.04 C9.65 2.04, 9.79 -0.9, 16.47 -0.82 C23.16 -0.75, 41.64 2.22, 46.82 2.5" stroke="#000000" stroke-width="1" fill="none"></path></g></g><g transform="translate(576.5947242468349 482.125) rotate(0 95.5 11.5)"><text x="0" y="18" font-family="Helvetica, Segoe UI Emoji" font-size="20px" fill="#000000" text-anchor="start" style="white-space: pre;" direction="ltr">Configuration classes</text></g><g stroke-linecap="round" transform="translate(51.63197081509918 131.01158837080243) rotate(0 35.339290345615666 53.625409397054625)"><path d="M0.6 -0.85 L71.38 0.82 L71.14 106.85 L0.28 108.74" stroke="none" stroke-width="0" fill="#fff"></path><path d="M1.86 -0.12 C17.82 1.14, 33.64 1.71, 72.54 -0.02 M0.96 0.04 C27.51 -0.15, 55.04 1.07, 71.56 0.84 M72.32 -1.01 C71.96 36.12, 72.35 69.64, 69.16 106.01 M70.72 0.69 C71.2 42.84, 69.75 84.04, 69.73 106.56 M69.25 107.07 C50.06 105.71, 32.66 108.27, 0.9 107.73 M71.18 108.24 C55.16 108.09, 40.88 108.08, -0.14 107.9 M0.09 107.28 C-1.61 73.31, -0.51 36.2, 1.77 -1.77 M-0.45 107.91 C-0.43 85.56, -0.58 61.62, 0.75 -0.27" stroke="#000000" stroke-width="2" fill="none"></path></g><g stroke-linecap="round" transform="translate(44.08453777938496 123.99149908508821) rotate(0 35.339290345615666 53.625409397054625)"><path d="M-0.85 0.71 L71.5 0.47 L70.28 107.53 L1.48 105.86" stroke="none" stroke-width="0" fill="#fff"></path><path d="M-0.12 1.98 C17.66 1.29, 35.13 1.21, 70.66 1.8 M0.04 -0.07 C27.6 -0.8, 57.09 0.2, 71.52 0.25 M69.67 0.85 C72.69 37.76, 71.36 71.53, 69.44 109.06 M71.37 0.59 C72 30.62, 71.34 62.01, 69.99 106.9 M70.5 105.32 C45.36 106.11, 23.68 107.65, 0.48 105.46 M71.67 106.61 C47.66 107.57, 24.02 107.46, 0.65 107.53 M0.03 105.69 C0.91 74.17, -1.02 43.79, -1.77 -1.8 M0.66 107.48 C1.23 68.55, -0.19 30.43, -0.27 0.3" stroke="#000000" stroke-width="2" fill="none"></path></g><g stroke-linecap="round" transform="translate(34.6894484936696 115.73759283508844) rotate(0 35.339290345615666 53.625409397054625)"><path d="M0.71 0.82 L71.14 -0.4 L70.96 108.74 L-1.39 107.25" stroke="none" stroke-width="0" fill="#fff"></path><path d="M1.98 0.76 C19.41 1.38, 36.79 0.02, 72.48 2 M-0.07 -0.67 C15.83 0.52, 32.78 0.81, 70.93 0.41 M71.52 1.27 C72.79 39.57, 70.04 78.04, 72.49 107.12 M71.27 0.98 C69.87 35.99, 69.78 70.66, 70.32 107.68 M68.75 106.17 C53.38 108.67, 38.26 107.66, -1.79 107.94 M70.04 107.87 C47.19 108.56, 23.64 108.6, 0.28 107.29 M-1.57 108.49 C-0.52 71.08, 1.72 34.51, -1.8 1.23 M0.23 108.07 C0.56 78.58, 1.24 50.85, 0.3 -0.42" stroke="#000000" stroke-width="2" fill="none"></path></g><g stroke-linecap="round"><g transform="translate(46.67587508058057 164.4848298824411) rotate(0 24.024196704942177 -0.9752850119643597)"><path d="M1.19 0.46 C7.93 0.63, 33.84 1.55, 41.59 0.96 C49.34 0.37, 46.69 -2.63, 47.7 -3.1 M0.35 -0.35 C6.94 -0.51, 33.4 -0.5, 41.26 -0.74 C49.12 -0.98, 46.93 -1.28, 47.52 -1.79" stroke="#000000" stroke-width="1" fill="none"></path></g></g><g stroke-linecap="round"><g transform="translate(48.53112731859494 133.01954258360252) rotate(0 22.397750827779852 -1.0371793093418944)"><path d="M0.46 1.17 C3.41 0.69, 10.12 -1.62, 17.64 -1.69 C25.15 -1.75, 40.7 0.68, 45.56 0.75 M-0.76 0.74 C2.11 0.46, 9.52 -2.93, 17.11 -3.22 C24.7 -3.51, 40.31 -1.46, 44.79 -1.02" stroke="#000000" stroke-width="1" fill="none"></path></g></g><g stroke-linecap="round"><g transform="translate(48.45452780222547 200.41391685395956) rotate(0 23.883120536018573 0.37900281865103125)"><path d="M1.17 0.8 C5.56 0.68, 21.27 -0.72, 27.53 -0.27 C33.79 0.19, 35.38 3.61, 38.7 3.52 C42.02 3.42, 45.83 0.12, 47.44 -0.81 M0.32 0.18 C4.55 0.22, 20.81 1, 27.17 1.27 C33.53 1.54, 35.16 2.47, 38.51 1.8 C41.85 1.13, 45.82 -2.17, 47.22 -2.76" stroke="#000000" stroke-width="1" fill="none"></path></g></g><g stroke-linecap="round"><g transform="translate(45.27048062069514 211.65706526223835) rotate(0 27.044843373449545 -0.6546394725475579)"><path d="M0.8 1.12 C2.42 0.91, 7.4 0.39, 10.16 -0.08 C12.91 -0.56, 11.12 -1.86, 17.33 -1.73 C23.54 -1.61, 41.25 0.89, 47.42 0.66 C53.58 0.44, 53.18 -2.72, 54.32 -3.1 M-0.24 0.66 C1.18 0.65, 6.3 -1.38, 9.2 -1.64 C12.11 -1.9, 11.29 -1.46, 17.19 -0.89 C23.1 -0.31, 38.68 2.17, 44.61 1.79 C50.55 1.42, 50.98 -2.45, 52.81 -3.13" stroke="#000000" stroke-width="1" fill="none"></path></g></g><g stroke-linecap="round"><g transform="translate(45.555323516260955 148.08014413686374) rotate(0 24.353738524398366 0.877400356527346)"><path d="M1.12 -0.01 C4.14 -0.04, 11.79 0.1, 19.28 0.61 C26.76 1.12, 41.42 2.84, 46.04 3.04 M0.25 -1.06 C3.1 -1.46, 10.86 -1.28, 18.9 -0.88 C26.93 -0.49, 43.74 0.68, 48.46 1.31" stroke="#000000" stroke-width="1" fill="none"></path></g></g><g stroke-linecap="round"><g transform="translate(45.662811712411326 182.5634731727032) rotate(0 22.787886149460974 0.6097901209712404)"><path d="M-0.01 1.08 C1.41 0.99, 6.07 0.81, 9.29 0.54 C12.52 0.26, 13.09 -0.63, 19.35 -0.54 C25.61 -0.45, 42.27 0.57, 46.85 1.08 M-1.47 0.61 C-0.18 1.15, 5.53 1.57, 8.98 1.6 C12.42 1.64, 12.85 0.78, 19.19 0.8 C25.54 0.83, 42.71 1.35, 47.05 1.76" stroke="#000000" stroke-width="1" fill="none"></path></g></g><g transform="translate(10 52) rotate(0 76.5 11.5)"><text x="0" y="18" font-family="Helvetica, Segoe UI Emoji" font-size="20px" fill="#000000" text-anchor="start" style="white-space: pre;" direction="ltr">Template classes</text></g><g stroke-linecap="round"><g transform="translate(132.34472424683486 174) rotate(0 60.01764543866739 0.8177785002626479)"><path d="M0.41 1.92 C31.33 0.4, 61.67 0.17, 120.52 0.81 M-0.48 -0.28 C36.57 1.18, 72.13 1.41, 119.22 0.2" stroke="#000000" stroke-width="1" fill="none"></path></g><g transform="translate(132.34472424683486 174) rotate(0 60.01764543866739 0.8177785002626479)"><path d="M91.63 12.88 C99.62 8.76, 106.95 5.59, 119.73 0.01 M90.73 10.68 C100.27 8.32, 108.29 5.03, 118.43 -0.6" stroke="#000000" stroke-width="1" fill="none"></path></g><g transform="translate(132.34472424683486 174) rotate(0 60.01764543866739 0.8177785002626479)"><path d="M91.26 -7.64 C99.18 -6.63, 106.61 -4.67, 119.73 0.01 M90.37 -9.84 C99.98 -6.06, 108.11 -3.21, 118.43 -0.6" stroke="#000000" stroke-width="1" fill="none"></path></g></g><g stroke-linecap="round"><g transform="translate(552.6506374723614 453.6815930725098) rotate(0 134.0129458165211 -65.62659134969027)"><path d="M-0.55 0.52 C44.07 -21.32, 223.67 -109.71, 268.57 -131.77 M1.37 -0.25 C45.72 -21.89, 222.97 -108.88, 267.42 -130.67" stroke="#000000" stroke-width="1" fill="none"></path></g><g transform="translate(552.6506374723614 453.6815930725098) rotate(0 134.0129458165211 -65.62659134969027)"><path d="M247.49 -109.69 C253.1 -117.14, 260.71 -124.27, 265.51 -131.6 M246.92 -109.87 C252.86 -115.69, 260.22 -123, 268.21 -130.89" stroke="#000000" stroke-width="1" fill="none"></path></g><g transform="translate(552.6506374723614 453.6815930725098) rotate(0 134.0129458165211 -65.62659134969027)"><path d="M238.46 -128.12 C247.3 -128.69, 258.26 -128.99, 265.51 -131.6 M237.88 -128.3 C246.91 -128.02, 257.25 -129.25, 268.21 -130.89" stroke="#000000" stroke-width="1" fill="none"></path></g></g><g stroke-opacity="0.3" fill-opacity="0.3" stroke-linecap="round" transform="translate(1915.9673793694913 10.281746031746252) rotate(0 220.5 150.5)"><path d="M-0.5 0.6 C113.26 2.41, 225.04 1.21, 440.57 0.23 M0.43 0.31 C113.48 2.1, 227.9 1.81, 440.84 -0.19 M441.3 1.31 C439.33 111.31, 439.4 223.61, 440.2 301.06 M440.33 -0.56 C442.63 116.43, 442.29 233, 440.65 300.9 M440.89 300.94 C326.31 301.61, 210.74 303.24, 0.43 300.57 M440.78 300.72 C315.29 300.88, 190.64 300.67, 0.09 300.54 M0.04 300.15 C0.38 200.16, 0.17 98.31, -1.36 0.47 M-0.25 301.45 C-0.19 209.79, 0.49 119.79, 0.56 0.14" stroke="#000000" stroke-width="1" fill="none"></path></g><g stroke-opacity="0.3" fill-opacity="0.3" transform="translate(1939.9673793694913 26.281746031746252) rotate(0 144.5 23)"><text x="0" y="18" font-family="Helvetica, Segoe UI Emoji" font-size="20px" fill="#000000" text-anchor="start" style="white-space: pre;" direction="ltr">Spreadsheet.xlsx</text><text x="0" y="41" font-family="Helvetica, Segoe UI Emoji" font-size="20px" fill="#000000" text-anchor="start" style="white-space: pre;" direction="ltr">[IP or SI units per user selection]</text></g><g stroke-opacity="0.3" fill-opacity="0.3" stroke-linecap="round" transform="translate(1939.522934925046 85.39285714285734) rotate(0 190 100.22222222222217)"><path d="M0.9 1.01 C86.94 -1.8, 173.36 -1.09, 379.49 -0.23 M-0.27 0.33 C83.12 -1.45, 164.84 -1.67, 380.42 -0.06 M378.24 -0.35 C378.68 66.14, 379.39 131.3, 381.57 201.29 M380.73 -0.24 C378.66 54.1, 377.92 108.68, 379.65 201 M380.53 199.39 C240.36 201.22, 101.23 199.8, -0.19 201.41 M379.48 200.84 C274.1 199.31, 167.79 198.61, 0.23 200.56 M0.99 201.42 C0.67 128.55, -1.73 55.82, 0.04 -0.05 M-0.31 200.09 C1.15 123.2, 1.31 44.59, 0.45 -0.6" stroke="#000000" stroke-width="1" fill="none"></path></g><g stroke-opacity="0.3" fill-opacity="0.3" transform="translate(1954.0784904806026 254.05952380952397) rotate(0 26 11.5)"><text x="0" y="18" font-family="Helvetica, Segoe UI Emoji" font-size="20px" fill="#000000" text-anchor="start" style="white-space: pre;" direction="ltr">AHUs</text></g><g stroke-linecap="round"><g stroke-opacity="0.3" fill-opacity="0.3" transform="translate(1755.1987293481045 167.76257532793102) rotate(0 77.0514875260568 -0.18459599605506583)"><path d="M-0.48 -0.6 C24.88 -0.6, 126.59 -0.41, 152.34 -0.52 M1.47 1.7 C27.19 1.43, 129.21 -1.22, 154.58 -2.07" stroke="#000000" stroke-width="1" fill="none"></path></g><g stroke-opacity="0.3" fill-opacity="0.3" transform="translate(1755.1987293481045 167.76257532793102) rotate(0 77.0514875260568 -0.18459599605506583)"><path d="M26.72 -12.33 C20.63 -6.38, 10.5 -2.93, -0.1 -0.1 M27.07 -11.4 C17.99 -6.82, 7.69 -4.13, 0.47 -1.3" stroke="#000000" stroke-width="1" fill="none"></path></g><g stroke-opacity="0.3" fill-opacity="0.3" transform="translate(1755.1987293481045 167.76257532793102) rotate(0 77.0514875260568 -0.18459599605506583)"><path d="M26.7 8.19 C20.7 7.68, 10.58 4.69, -0.1 -0.1 M27.05 9.12 C17.82 6.63, 7.53 2.25, 0.47 -1.3" stroke="#000000" stroke-width="1" fill="none"></path></g><g stroke-opacity="0.3" fill-opacity="0.3" transform="translate(1755.1987293481045 167.76257532793102) rotate(0 77.0514875260568 -0.18459599605506583)"><path d="M125.71 7.5 C137.33 6.97, 144.84 3.73, 154.96 -1.58 M126.05 8.43 C136.14 5.52, 145.17 0.87, 155.53 -2.78" stroke="#000000" stroke-width="1" fill="none"></path></g><g stroke-opacity="0.3" fill-opacity="0.3" transform="translate(1755.1987293481045 167.76257532793102) rotate(0 77.0514875260568 -0.18459599605506583)"><path d="M125.11 -13.01 C136.84 -7.09, 144.53 -3.88, 154.96 -1.58 M125.46 -12.09 C135.9 -7.93, 145.13 -5.51, 155.53 -2.78" stroke="#000000" stroke-width="1" fill="none"></path></g></g><g stroke-opacity="0.3" fill-opacity="0.3" transform="translate(1796.6340460361578 124.8373015873018) rotate(0 36.5 11.5)"><text x="0" y="18" font-family="Helvetica, Segoe UI Emoji" font-size="20px" fill="#000000" text-anchor="start" style="white-space: pre;" direction="ltr">Phase 2</text></g></svg>